<?xml version="1.0" encoding="UTF-8"?>
<svg id="Layer_1" data-name="Layer 1" xmlns="http://www.w3.org/2000/svg" viewBox="0 0 500 500">
  <defs>
    <style>
      .cls-1 {
        fill: #16345a;
      }

      .cls-2 {
        fill: #e72a28;
      }
    </style>
  </defs>
  <path class="cls-2" d="M225.97,118.11l-138.81,166.35c-10.8,12.94-9.06,32.17,3.87,42.96l116.92,97.56c12.94,10.8,32.16,9.05,42.96-3.89l138.81-166.35L225.97,118.11ZM220.51,348.63l-2.52,8.78-18.37-21.32c-5.61-6.5-12.24-12.03-19.64-16.39l-24.26-14.26,8.19-4.05c2.77-1.38,4.3-4.42,3.74-7.45l-8.33-45.51,7.82,1.47c.93.18,1.85-.29,2.25-1.13l9.94-20.75,13.87,14.17c.84.86,2.15,1.01,3.15.36l9.16-5.8,2.03,27.38c.16,2.19,3.04,2.84,4.14.94l22.1-38.28,5.07,13.1c.57,1.47,2.22,2.22,3.7,1.67l27.94-10.37-5.2,29.34c-.27,1.56.75,3.04,2.3,3.34l13.79,2.64-33.7,28.6c-1.67,1.42-.51,4.14,1.67,3.91l27.3-2.91-4.07,10.05c-.46,1.11-.07,2.37.92,3.04l16.42,11.11-18.64,13.49c-.75.55-1.05,1.54-.71,2.42l2.84,7.43-46.26-.04c-3.08,0-5.8,2.04-6.66,5.01Z"/>
  <path class="cls-1" d="M408.62,219.65l-5.61-112.68c-.88-17.59-16.57-30.68-34.02-28.39l-111.86,14.66c-7.51.99-14.38,4.76-19.23,10.57l-4.59,5.5,163.75,136.63,4.59-5.5c4.85-5.81,7.34-13.23,6.97-20.8ZM345.41,141.41c-8.52-7.11-9.67-19.79-2.56-28.32,7.11-8.52,19.79-9.66,28.31-2.55,8.52,7.11,9.68,19.78,2.56,28.31-7.11,8.52-19.79,9.67-28.32,2.56Z"/>
</svg>