<?xml version="1.0" encoding="UTF-8"?>
<svg id="Layer_1" data-name="Layer 1" xmlns="http://www.w3.org/2000/svg" viewBox="0 0 1415.33 500">
  <defs>
    <style>
      .cls-1 {
        fill: #16345a;
      }

      .cls-2 {
        fill: #e72a28;
      }
    </style>
  </defs>
  <g>
    <path class="cls-2" d="M225.97,118.11l-138.81,166.35c-10.8,12.94-9.06,32.17,3.87,42.96l116.92,97.56c12.94,10.8,32.16,9.05,42.96-3.89l138.81-166.35L225.97,118.11ZM220.51,348.63l-2.52,8.78-18.37-21.32c-5.61-6.5-12.24-12.03-19.64-16.39l-24.26-14.26,8.19-4.05c2.77-1.38,4.3-4.42,3.74-7.45l-8.33-45.51,7.82,1.47c.93.18,1.85-.29,2.25-1.13l9.94-20.75,13.87,14.17c.84.86,2.15,1.01,3.15.36l9.16-5.8,2.03,27.38c.16,2.19,3.04,2.84,4.14.94l22.1-38.28,5.07,13.1c.57,1.47,2.22,2.22,3.7,1.67l27.94-10.37-5.2,29.34c-.27,1.56.75,3.04,2.3,3.34l13.79,2.64-33.7,28.6c-1.67,1.42-.51,4.14,1.67,3.91l27.3-2.91-4.07,10.05c-.46,1.11-.07,2.37.92,3.04l16.42,11.11-18.64,13.49c-.75.55-1.05,1.54-.71,2.42l2.84,7.43-46.26-.04c-3.08,0-5.8,2.04-6.66,5.01Z"/>
    <path class="cls-1" d="M408.62,219.65l-5.61-112.68c-.88-17.59-16.57-30.68-34.02-28.39l-111.86,14.66c-7.51.99-14.38,4.76-19.23,10.57l-4.59,5.5,163.75,136.63,4.59-5.5c4.85-5.81,7.34-13.23,6.97-20.8ZM345.41,141.41c-8.52-7.11-9.67-19.79-2.56-28.32,7.11-8.52,19.79-9.66,28.31-2.55,8.52,7.11,9.68,19.78,2.56,28.31-7.11,8.52-19.79,9.67-28.32,2.56Z"/>
  </g>
  <g>
    <path class="cls-2" d="M488.74,182.54v-.19c0-19.17,14.45-34.87,35.16-34.87,12.72,0,20.33,4.24,26.59,10.4l-9.44,10.89c-5.2-4.72-10.5-7.61-17.24-7.61-11.37,0-19.56,9.44-19.56,21v.19c0,11.56,8,21.19,19.56,21.19,7.71,0,12.43-3.08,17.73-7.9l9.44,9.54c-6.94,7.42-14.64,12.04-27.65,12.04-19.85,0-34.58-15.32-34.58-34.68Z"/>
    <path class="cls-2" d="M585.94,148.15h13.68l28.9,67.92h-15.51l-6.17-15.12h-28.52l-6.17,15.12h-15.12l28.9-67.92ZM601.55,187.83l-8.96-21.87-8.96,21.87h17.92Z"/>
    <path class="cls-2" d="M638.92,148.63h15.99l17.73,28.52,17.73-28.52h15.99v67.43h-14.74v-44.02l-18.98,28.8h-.39l-18.79-28.52v43.74h-14.55v-67.43Z"/>
    <path class="cls-2" d="M722.54,148.63h27.55c16.09,0,25.82,9.54,25.82,23.31v.19c0,15.61-12.14,23.7-27.26,23.7h-11.27v20.23h-14.84v-67.43ZM749.13,182.63c7.42,0,11.75-4.43,11.75-10.21v-.19c0-6.65-4.62-10.21-12.04-10.21h-11.46v20.62h11.75Z"/>
    <path class="cls-2" d="M785.84,187.16v-38.53h14.84v38.15c0,10.98,5.49,16.67,14.55,16.67s14.55-5.49,14.55-16.18v-38.63h14.84v38.05c0,20.42-11.46,30.44-29.57,30.44s-29.19-10.11-29.19-29.96Z"/>
    <path class="cls-2" d="M855.1,206.24l8.77-10.5c6.07,5.01,12.43,8.19,20.13,8.19,6.07,0,9.73-2.41,9.73-6.36v-.19c0-3.76-2.31-5.68-13.58-8.57-13.58-3.47-22.35-7.23-22.35-20.62v-.19c0-12.23,9.83-20.33,23.6-20.33,9.83,0,18.21,3.08,25.05,8.57l-7.71,11.18c-5.97-4.14-11.85-6.65-17.53-6.65s-8.67,2.6-8.67,5.88v.19c0,4.43,2.89,5.88,14.55,8.86,13.68,3.56,21.39,8.48,21.39,20.23v.19c0,13.39-10.21,20.9-24.76,20.9-10.21,0-20.52-3.56-28.61-10.79Z"/>
    <path class="cls-2" d="M945.66,206.24l8.77-10.5c6.07,5.01,12.43,8.19,20.13,8.19,6.07,0,9.73-2.41,9.73-6.36v-.19c0-3.76-2.31-5.68-13.58-8.57-13.58-3.47-22.35-7.23-22.35-20.62v-.19c0-12.23,9.83-20.33,23.6-20.33,9.83,0,18.21,3.08,25.05,8.57l-7.71,11.18c-5.97-4.14-11.85-6.65-17.53-6.65s-8.67,2.6-8.67,5.88v.19c0,4.43,2.89,5.88,14.55,8.86,13.68,3.56,21.39,8.48,21.39,20.23v.19c0,13.39-10.21,20.9-24.76,20.9-10.21,0-20.52-3.56-28.61-10.79Z"/>
    <path class="cls-2" d="M1026.2,162.31h-20.52v-13.68h55.87v13.68h-20.52v53.75h-14.83v-53.75Z"/>
    <path class="cls-2" d="M1067.05,182.54v-.19c0-19.17,15.12-34.87,35.93-34.87s35.74,15.51,35.74,34.68v.19c0,19.17-15.12,34.87-35.93,34.87s-35.74-15.51-35.74-34.68ZM1123.21,182.54v-.19c0-11.56-8.48-21.19-20.42-21.19s-20.23,9.44-20.23,21v.19c0,11.56,8.48,21.19,20.42,21.19s20.23-9.44,20.23-21Z"/>
    <path class="cls-2" d="M1151.92,148.63h30.83c8.57,0,15.22,2.41,19.65,6.84,3.76,3.76,5.78,9.06,5.78,15.41v.19c0,10.89-5.88,17.73-14.45,20.91l16.47,24.08h-17.34l-14.45-21.58h-11.66v21.58h-14.84v-67.43ZM1181.78,181.38c7.23,0,11.37-3.85,11.37-9.54v-.19c0-6.36-4.43-9.63-11.66-9.63h-14.74v19.36h15.03Z"/>
    <path class="cls-2" d="M1221.57,148.63h50.86v13.2h-36.13v13.68h31.79v13.2h-31.79v14.16h36.61v13.2h-51.35v-67.43Z"/>
    <path class="cls-2" d="M1281.49,206.24l8.77-10.5c6.07,5.01,12.43,8.19,20.13,8.19,6.07,0,9.73-2.41,9.73-6.36v-.19c0-3.76-2.31-5.68-13.58-8.57-13.58-3.47-22.35-7.23-22.35-20.62v-.19c0-12.23,9.83-20.33,23.6-20.33,9.83,0,18.21,3.08,25.05,8.57l-7.71,11.18c-5.97-4.14-11.85-6.65-17.53-6.65s-8.67,2.6-8.67,5.88v.19c0,4.43,2.89,5.88,14.55,8.86,13.68,3.56,21.39,8.48,21.39,20.23v.19c0,13.39-10.21,20.9-24.76,20.9-10.21,0-20.52-3.56-28.61-10.79Z"/>
  </g>
  <g>
    <path class="cls-1" d="M488.74,308.42v-.37c0-36.74,27.88-66.84,67.83-66.84,24.53,0,39.21,8.12,51.29,19.94l-18.21,20.87c-10.04-9.05-20.26-14.59-33.27-14.59-21.93,0-37.73,18.1-37.73,40.25v.37c0,22.16,15.42,40.62,37.73,40.62,14.87,0,23.97-5.91,34.19-15.14l18.21,18.28c-13.38,14.22-28.25,23.08-53.34,23.08-38.28,0-66.72-29.36-66.72-66.47Z"/>
    <path class="cls-1" d="M676.25,242.5h26.39l55.75,130.18h-29.92l-11.89-28.99h-55.01l-11.89,28.99h-29.18l55.75-130.18ZM706.35,318.58l-17.28-41.91-17.28,41.91h34.57Z"/>
    <path class="cls-1" d="M778.46,243.43h26.39l60.96,79.58v-79.58h28.25v129.25h-24.34l-63-82.17v82.17h-28.25v-129.25Z"/>
    <path class="cls-1" d="M969.87,242.5h26.39l55.75,130.18h-29.92l-11.89-28.99h-55.01l-11.89,28.99h-29.18l55.75-130.18ZM999.98,318.58l-17.28-41.91-17.28,41.91h34.57Z"/>
    <path class="cls-1" d="M1072.08,243.43h50.73c40.88,0,69.13,27.88,69.13,64.26v.37c0,36.37-28.25,64.63-69.13,64.63h-50.73v-129.25ZM1100.7,269.09v77.92h22.12c23.42,0,39.21-15.69,39.21-38.59v-.37c0-22.9-15.8-38.96-39.21-38.96h-22.12Z"/>
    <path class="cls-1" d="M1252.72,242.5h26.39l55.75,130.18h-29.92l-11.89-28.99h-55.01l-11.89,28.99h-29.18l55.75-130.18ZM1282.82,318.58l-17.28-41.91-17.28,41.91h34.57Z"/>
  </g>
</svg>